<svg width="472" height="72" viewBox="0 0 472 72" fill="none" xmlns="http://www.w3.org/2000/svg">
<path d="M104.894 56.8965C100.313 56.8965 96.2563 55.8932 92.7228 53.8865C89.1892 51.8361 86.4191 49.0442 84.4124 45.5107C82.4057 41.9335 81.4023 37.8329 81.4023 33.2087C81.4023 29.8061 81.9913 26.6869 83.1691 23.8514C84.3906 20.9722 86.0701 18.4638 88.2077 16.3263C90.3889 14.1887 92.9191 12.531 95.7982 11.3531C98.721 10.1753 101.906 9.58636 105.352 9.58636C108.58 9.58636 111.721 10.2407 114.775 11.5494C117.828 12.8582 120.315 14.6904 122.234 17.0461L115.691 24.3749C114.295 22.848 112.724 21.6484 110.979 20.7759C109.278 19.9034 107.38 19.4672 105.286 19.4672C102.844 19.4672 100.619 20.0343 98.612 21.1685C96.6489 22.3027 95.0784 23.9168 93.9006 26.0108C92.7664 28.0611 92.1993 30.4822 92.1993 33.2742C92.1993 36.0661 92.7664 38.4872 93.9006 40.5375C95.0784 42.5879 96.7143 44.1801 98.8083 45.3144C100.946 46.4486 103.411 47.0157 106.203 47.0157C108.253 47.0157 110.194 46.6013 112.026 45.7724C113.859 44.8999 115.407 43.7875 116.672 42.4352L121.776 50.6147C120.729 51.7925 119.29 52.8613 117.458 53.821C115.669 54.7808 113.684 55.5442 111.503 56.1113C109.322 56.6348 107.119 56.8965 104.894 56.8965Z" fill="#FF7A00"/>
<path d="M124.605 56.2422V7.81959H134.552V56.2422H124.605Z" fill="#FF7A00"/>
<path d="M152.218 56.8965C149.339 56.8965 146.743 56.1113 144.431 54.5408C142.119 52.9704 140.287 50.8328 138.935 48.1281C137.582 45.3798 136.906 42.2825 136.906 38.8362C136.906 35.3027 137.582 32.1836 138.935 29.4789C140.287 26.7742 142.141 24.6584 144.497 23.1316C146.852 21.6048 149.535 20.8413 152.545 20.8413C154.901 20.8413 156.951 21.2994 158.696 22.2155C160.485 23.1316 161.946 24.3531 163.08 25.8799V21.5611H172.961V56.2422H162.95V51.858C161.772 53.3412 160.245 54.5626 158.369 55.5224C156.493 56.4385 154.443 56.8965 152.218 56.8965ZM154.966 48.3899C157.453 48.3899 159.438 47.5174 160.921 45.7724C162.448 44.0275 163.211 41.7154 163.211 38.8362C163.211 35.957 162.448 33.645 160.921 31.9C159.438 30.155 157.453 29.2826 154.966 29.2826C152.523 29.2826 150.539 30.155 149.012 31.9C147.529 33.645 146.787 35.957 146.787 38.8362C146.787 41.7154 147.529 44.0275 149.012 45.7724C150.539 47.5174 152.523 48.3899 154.966 48.3899Z" fill="#FF7A00"/>
<path d="M183.961 14.5595C182.085 14.5595 180.602 14.1014 179.511 13.1853C178.464 12.2692 177.941 10.9823 177.941 9.32462C177.941 7.79778 178.464 6.5545 179.511 5.59477C180.602 4.59142 182.085 4.08974 183.961 4.08974C185.837 4.08974 187.298 4.5478 188.345 5.4639C189.392 6.38 189.916 7.66691 189.916 9.32462C189.916 10.8951 189.37 12.1602 188.28 13.1199C187.233 14.0796 185.793 14.5595 183.961 14.5595ZM178.988 56.2422V21.5611H188.934V56.2422H178.988Z" fill="#FF7A00"/>
<path d="M194.845 56.2422V21.5611H204.333L204.529 25.9453C205.707 24.3313 207.212 23.088 209.044 22.2155C210.92 21.343 212.796 20.9068 214.672 20.9068C217.028 20.9068 219.056 21.4084 220.757 22.4118C222.459 23.3715 223.811 24.9638 224.814 27.1886C226.036 25.2692 227.737 23.7423 229.918 22.6081C232.143 21.4739 234.303 20.9068 236.397 20.9068C240.497 20.9068 243.573 22.1282 245.623 24.5712C247.673 26.9705 248.699 30.504 248.699 35.1718V56.2422H238.752V35.8916C238.752 31.5292 236.942 29.348 233.321 29.348C231.402 29.348 229.809 29.9369 228.544 31.1148C227.323 32.2926 226.712 33.7758 226.712 35.5644V56.2422H216.766V35.8262C216.766 33.7322 216.286 32.1399 215.326 31.0493C214.41 29.9151 213.101 29.348 211.4 29.348C209.524 29.348 207.954 29.9369 206.689 31.1148C205.467 32.2926 204.856 33.754 204.856 35.499V56.2422H194.845Z" fill="#FF7A00"/>
<path d="M254.712 56.2422V10.437H264.201L277.615 32.2926L291.226 10.437H300.387V56.2422H290.113V41.3228C290.113 38.749 290.157 36.3496 290.244 34.1248C290.331 31.9 290.462 29.7624 290.637 27.7121L279.578 44.7909H275.259L264.528 27.9084C264.702 29.8279 264.811 31.8782 264.855 34.0594C264.942 36.2406 264.986 38.6617 264.986 41.3228V56.2422H254.712Z" fill="#FF7A00"/>
<path d="M311.499 71.2924L318.174 55.6532L302.6 21.5611H313.855L321.707 40.1449C322.187 41.2355 322.624 42.4352 323.016 43.7439C323.147 43.3077 323.3 42.8496 323.474 42.3697C323.649 41.8899 323.823 41.3882 323.998 40.8647L330.803 21.5611H342.123L327.466 56.2422L321.511 71.2924H311.499Z" fill="#FF7A00"/>
<path d="M344.355 56.2422V10.437H364.837C367.76 10.437 370.377 11.0696 372.689 12.3347C375.001 13.5998 376.833 15.3447 378.186 17.5695C379.582 19.7507 380.28 22.2373 380.28 25.0292C380.28 28.0393 379.494 30.744 377.924 33.1433C376.397 35.499 374.347 37.2876 371.773 38.509L382.112 56.3076L370.006 56.2422L360.845 40.0141H354.432V56.2422H344.355ZM354.432 31.7037H364.052C365.84 31.7037 367.258 31.1366 368.305 30.0024C369.352 28.8245 369.875 27.3413 369.875 25.5527C369.875 23.6769 369.243 22.1719 367.978 21.0376C366.756 19.9034 365.098 19.3363 363.005 19.3363H354.432V31.7037Z" fill="#FF7A00"/>
<path d="M390.751 14.5595C388.875 14.5595 387.392 14.1014 386.301 13.1853C385.254 12.2692 384.731 10.9823 384.731 9.32462C384.731 7.79778 385.254 6.5545 386.301 5.59477C387.392 4.59142 388.875 4.08974 390.751 4.08974C392.627 4.08974 394.088 4.5478 395.135 5.4639C396.182 6.38 396.705 7.66691 396.705 9.32462C396.705 10.8951 396.16 12.1602 395.07 13.1199C394.023 14.0796 392.583 14.5595 390.751 14.5595ZM385.778 56.2422V21.5611H395.724V56.2422H385.778Z" fill="#FF7A00"/>
<path d="M415.049 56.8965C412.039 56.8965 409.334 56.1331 406.935 54.6063C404.579 53.0794 402.725 50.9637 401.373 48.259C400.02 45.5107 399.344 42.3916 399.344 38.9016C399.344 35.4117 400.02 32.3144 401.373 29.6097C402.769 26.9051 404.645 24.7675 407 23.197C409.4 21.6266 412.104 20.8413 415.114 20.8413C417.165 20.8413 419.106 21.234 420.938 22.0192C422.77 22.8044 424.275 23.8296 425.453 25.0947V7.81959H435.399V56.2422H426.108L425.846 52.316C424.755 53.6247 423.228 54.7153 421.265 55.5878C419.346 56.4603 417.274 56.8965 415.049 56.8965ZM417.47 48.6516C419.957 48.6516 421.941 47.7573 423.425 45.9687C424.952 44.1801 425.715 41.8244 425.715 38.9016C425.715 35.9352 424.952 33.5795 423.425 31.8346C421.941 30.046 419.957 29.1517 417.47 29.1517C414.983 29.1517 412.977 30.046 411.45 31.8346C409.967 33.5795 409.225 35.9352 409.225 38.9016C409.225 41.8244 409.967 44.1801 411.45 45.9687C412.977 47.7573 414.983 48.6516 417.47 48.6516Z" fill="#FF7A00"/>
<path d="M456.877 56.8965C453.081 56.8965 449.766 56.1331 446.93 54.6063C444.095 53.0794 441.892 50.9855 440.321 48.3244C438.795 45.6197 438.031 42.5442 438.031 39.098C438.031 35.5208 438.795 32.3581 440.321 29.6097C441.848 26.8614 443.942 24.7239 446.603 23.197C449.264 21.6266 452.296 20.8413 455.699 20.8413C458.883 20.8413 461.719 21.6048 464.205 23.1316C466.692 24.6148 468.633 26.6651 470.029 29.2826C471.425 31.9 472.08 34.8882 471.992 38.2473L471.927 41.061H447.716C448.239 43.2422 449.373 44.9872 451.118 46.2959C452.907 47.561 455.175 48.1935 457.924 48.1935C459.45 48.1935 460.825 47.9754 462.046 47.5392C463.268 47.0593 464.554 46.2741 465.907 45.1835L470.618 51.7925C468.611 53.4939 466.408 54.7808 464.009 55.6532C461.653 56.4821 459.276 56.8965 456.877 56.8965ZM455.83 29.2171C451.336 29.2171 448.632 31.2456 447.716 35.3027H462.7V35.1064C462.57 33.405 461.85 32.0091 460.541 30.9185C459.276 29.7842 457.706 29.2171 455.83 29.2171Z" fill="#FF7A00"/>
<path fill-rule="evenodd" clip-rule="evenodd" d="M25.5737 0C11.4497 0 0 11.4497 0 25.5737V45.5879C0 59.7118 11.4497 71.1615 25.5737 71.1615H45.5879C59.7118 71.1615 71.1615 59.7118 71.1615 45.5879V25.5737C71.1615 11.4497 59.7118 0 45.5879 0H25.5737ZM36.0012 12C41.1047 12 46.2086 13.9195 50.096 17.758C55.9595 23.462 57.6095 31.9964 54.352 39.4588L54.3087 39.5451C51.3118 46.4499 46.5344 52.5823 40.5405 57.257L40.0188 57.6859C38.8895 58.5866 37.4567 59.0588 35.98 59.0588C34.5467 59.0588 33.157 58.5864 32.0277 57.7286C25.7298 52.9681 20.7344 46.6212 17.6071 39.4161C14.393 31.9966 16.0871 23.462 21.9073 17.758C25.7946 13.9195 30.8977 12 36.0012 12ZM36.1366 17.7533C28.1935 17.7533 21.7534 24.1933 21.7534 32.1364C21.7534 40.0795 28.1935 46.5196 36.1366 46.5196C44.0797 46.5196 50.5198 40.0795 50.5198 32.1364C50.5198 24.1933 44.0797 17.7533 36.1366 17.7533ZM37.3352 39.1566V41.7252H34.938V39.1638C32.385 38.8234 30.7776 37.3383 30.6877 35.1377H33.4217C33.5524 36.2332 34.6575 36.9356 36.2492 36.9356C37.7199 36.9356 38.7591 36.2237 38.7591 35.2036C38.7591 34.3419 38.0855 33.8456 36.4278 33.4897L34.6671 33.1157C32.204 32.6003 30.997 31.3178 30.997 29.2574C30.997 27.064 32.524 25.5226 34.938 25.1354V22.5476H37.3352V25.1318C39.6796 25.5118 41.2618 27.0304 41.3349 29.1076H38.6752C38.5446 28.0396 37.5509 27.3289 36.1845 27.3289C34.7702 27.3289 33.8341 27.9845 33.8341 29.0141C33.8341 29.8471 34.4801 30.3254 36.0623 30.6622L37.6912 31.0086C40.4072 31.5803 41.577 32.7501 41.577 34.8477C41.5782 37.2233 39.9889 38.7934 37.3352 39.1566Z" fill="#FF7A00"/>
</svg>
