<svg width="16" height="16" viewBox="0 0 16 16" fill="none" xmlns="http://www.w3.org/2000/svg">
<path d="M7.99999 0C7.1513 0 6.33736 0.337142 5.73725 0.937258C5.13713 1.53737 4.79999 2.35131 4.79999 3.2C4.79999 4.04869 5.13713 4.86263 5.73725 5.46274C6.33736 6.06286 7.1513 6.4 7.99999 6.4C8.84868 6.4 9.66261 6.06286 10.2627 5.46274C10.8628 4.86263 11.2 4.04869 11.2 3.2C11.2 2.35131 10.8628 1.53737 10.2627 0.937258C9.66261 0.337142 8.84868 0 7.99999 0ZM7.99999 8C4.52239 8 0.799988 9.67138 0.799988 12.1594V13.9125C0.799988 14.0957 0.924713 14.2568 1.10311 14.3016L3.34218 14.8594C3.25258 15.2258 3.19999 15.6064 3.19999 16H12.8C12.8 15.6064 12.7474 15.2258 12.6578 14.8594L14.8969 14.3016C15.0753 14.2568 15.2 14.0957 15.2 13.9125V12.1594C15.2 9.67138 11.4776 8 7.99999 8ZM7.99999 9.6C11.016 9.6 13.6 11.0074 13.6 12.1594V12.975L12.0125 13.3734C11.1541 12.0662 9.67679 11.2 7.99999 11.2C6.32319 11.2 4.84589 12.0662 3.98749 13.3734L2.39999 12.975V12.1594C2.39999 11.0074 4.98399 9.6 7.99999 9.6Z" fill="#7D7BE8"/>
</svg>
