<svg width="20" height="20" viewBox="0 0 20 20" fill="inherit" xmlns="http://www.w3.org/2000/svg">
<path d="M10.25 0.400001C10.1424 0.400653 10.0351 0.41217 9.92971 0.434376L9.92815 0.432813L1.95315 2.02813L1.95159 2.02969C1.58583 2.09913 1.25574 2.29394 1.01816 2.58057C0.780585 2.8672 0.650399 3.22771 0.650024 3.6V16.4C0.650104 16.7728 0.780347 17.1338 1.01826 17.4208C1.25618 17.7078 1.58684 17.9027 1.95315 17.9719L9.92815 19.5672C10.0341 19.589 10.1419 19.6 10.25 19.6C10.6744 19.6 11.0813 19.4314 11.3814 19.1314C11.6815 18.8313 11.85 18.4243 11.85 18V2C11.85 1.57565 11.6815 1.16869 11.3814 0.86863C11.0813 0.568571 10.6744 0.400001 10.25 0.400001ZM13.45 2V4.4H15.05V6H13.45V7.6H15.05V9.2H13.45V10.8H15.05V12.4H13.45V14H15.05V15.6H13.45V18H18.25C19.134 18 19.85 17.284 19.85 16.4V3.6C19.85 2.716 19.134 2 18.25 2H13.45ZM16.65 4.4H17.45C17.8916 4.4 18.25 4.7584 18.25 5.2C18.25 5.6416 17.8916 6 17.45 6H16.65V4.4ZM3.19846 6H5.12034L6.11565 8.39219C6.19645 8.58739 6.26106 8.81351 6.32346 9.07031H6.35002C6.38602 8.91591 6.45685 8.68144 6.56565 8.37344L7.67815 6H9.42815L7.33752 9.96406L9.49065 13.9984H7.62346L6.42034 11.3922C6.37474 11.3002 6.32139 11.1146 6.27659 10.8578H6.2594C6.2322 10.981 6.1785 11.1669 6.0969 11.4141L4.88596 14H3.0094L5.23596 9.99531L3.19846 6ZM16.65 7.6H17.45C17.8916 7.6 18.25 7.9584 18.25 8.4C18.25 8.8416 17.8916 9.2 17.45 9.2H16.65V7.6ZM16.65 10.8H17.45C17.8916 10.8 18.25 11.1584 18.25 11.6C18.25 12.0416 17.8916 12.4 17.45 12.4H16.65V10.8ZM16.65 14H17.45C17.8916 14 18.25 14.3584 18.25 14.8C18.25 15.2416 17.8916 15.6 17.45 15.6H16.65V14Z" fill="inherit"/>
</svg>
