<svg width="18" height="18" viewBox="0 0 18 18"  fill="inherit" xmlns="http://www.w3.org/2000/svg">
<path d="M8.74996 0.666664C6.24027 0.666664 4.00306 1.79639 2.47555 3.55892L0.416626 1.5V6.5H5.41663L3.64742 4.73079C4.87083 3.27045 6.69963 2.33333 8.74996 2.33333C12.4258 2.33333 15.4166 5.32416 15.4166 9C15.4166 12.6758 12.4258 15.6667 8.74996 15.6667C5.07413 15.6667 2.08329 12.6758 2.08329 9H0.416626C0.416626 13.595 4.15496 17.3333 8.74996 17.3333C13.345 17.3333 17.0833 13.595 17.0833 9C17.0833 4.405 13.345 0.666664 8.74996 0.666664ZM7.91663 4V9.34505L10.6608 12.0892L11.8392 10.9108L9.58329 8.65495V4H7.91663Z"  fill="inherit" />
</svg>
