<svg width="14" height="14" viewBox="0 0 14 14" fill="none" xmlns="http://www.w3.org/2000/svg">
<path d="M12.4444 0H1.55556C0.696111 0 0 0.696111 0 1.55556V12.4444C0 13.3039 0.696111 14 1.55556 14H9.33333L14 9.33333V1.55556C14 0.696111 13.3039 0 12.4444 0ZM3.88889 3.11111H10.1111C10.5404 3.11111 10.8889 3.45956 10.8889 3.88889C10.8889 4.31822 10.5404 4.66667 10.1111 4.66667H3.88889C3.45956 4.66667 3.11111 4.31822 3.11111 3.88889C3.11111 3.45956 3.45956 3.11111 3.88889 3.11111ZM6.22222 7.77778H3.88889C3.45956 7.77778 3.11111 7.42933 3.11111 7C3.11111 6.57067 3.45956 6.22222 3.88889 6.22222H6.22222C6.65156 6.22222 7 6.57067 7 7C7 7.42933 6.65156 7.77778 6.22222 7.77778ZM8.55556 12.8333V8.55556H12.8333L8.55556 12.8333Z" fill="#6ACD68"/>
</svg>
