<svg width="16" height="16" viewBox="0 0 16 16" fill="none" xmlns="http://www.w3.org/2000/svg">
<path d="M8 0C3.6 0 0 3.6 0 8C0 12.4 3.6 16 8 16C12.4 16 16 12.4 16 8C16 3.6 12.4 0 8 0ZM8 1.6C11.2485 1.6 13.946 4.05491 14.3437 7.2H11.0953C10.9181 6.51361 10.518 5.9055 9.95773 5.47112C9.39751 5.03674 8.7089 4.80068 8 4.8C7.29137 4.80103 6.60312 5.03724 6.04321 5.4716C5.4833 5.90595 5.08341 6.51387 4.90625 7.2H1.65625C2.05396 4.05491 4.7515 1.6 8 1.6ZM1.65625 8.8H4.90469C5.04806 9.35224 5.33646 9.8561 5.74004 10.2594C6.14361 10.6627 6.64767 10.9508 7.2 11.0938V14.3438C4.31777 13.9793 2.02072 11.6822 1.65625 8.8ZM11.0938 8.8H14.3437C13.9793 11.6822 11.6822 13.9793 8.8 14.3438V11.0953C9.35223 10.9519 9.8561 10.6635 10.2594 10.26C10.6627 9.85639 10.9508 9.35233 11.0938 8.8Z" fill="#FF7A00"/>
</svg>
