<svg width="44" height="44" viewBox="0 0 44 44" fill="none" xmlns="http://www.w3.org/2000/svg">
<circle cx="22" cy="22" r="21" stroke="#FF7A00" stroke-opacity="0.2" stroke-width="2" stroke-dasharray="4 4"/>
<g filter="url(#filter0_d_165_1642)">
<circle cx="22" cy="22" r="17" fill="#FF7A00"/>
</g>
<g filter="url(#filter1_d_165_1642)">
<path d="M22 7.59998C14.0476 7.59998 7.60001 14.0476 7.60001 22C7.60001 26.2744 9.47368 30.1014 12.4305 32.739V32.3875L12.5969 32.1086C13.8281 30.035 18.4853 28 21.9977 28C25.5125 28 30.1708 30.0338 31.4008 32.1086L31.5695 32.3898V32.739C34.5275 30.1026 36.4 26.2744 36.4 22C36.4 14.0476 29.9524 7.59998 22 7.59998ZM22 14.8C24.6472 14.8 26.8 16.9528 26.8 19.6V20.8C26.8 23.4472 24.6472 25.6 22 25.6C19.3528 25.6 17.2 23.4472 17.2 20.8V19.6C17.2 16.9528 19.3528 14.8 22 14.8ZM22 17.2C20.6764 17.2 19.6 18.2764 19.6 19.6V20.8C19.6 22.1236 20.6764 23.2 22 23.2C23.3236 23.2 24.4 22.1236 24.4 20.8V19.6C24.4 18.2764 23.3236 17.2 22 17.2ZM21.9977 30.4C19.2125 30.4 15.7989 31.9958 14.8281 33.107L14.8258 34.4734C16.939 35.6926 19.384 36.4 22 36.4C24.6148 36.4 27.0598 35.6914 29.1742 34.4734C29.173 34.045 29.1707 33.5918 29.1695 33.107C28.1987 31.9958 24.7841 30.4 21.9977 30.4Z" fill="white"/>
</g>
<defs>
<filter id="filter0_d_165_1642" x="3" y="4" width="38" height="38" filterUnits="userSpaceOnUse" color-interpolation-filters="sRGB">
<feFlood flood-opacity="0" result="BackgroundImageFix"/>
<feColorMatrix in="SourceAlpha" type="matrix" values="0 0 0 0 0 0 0 0 0 0 0 0 0 0 0 0 0 0 127 0" result="hardAlpha"/>
<feOffset dy="1"/>
<feGaussianBlur stdDeviation="1"/>
<feComposite in2="hardAlpha" operator="out"/>
<feColorMatrix type="matrix" values="0 0 0 0 0 0 0 0 0 0 0 0 0 0 0 0 0 0 0.08 0"/>
<feBlend mode="normal" in2="BackgroundImageFix" result="effect1_dropShadow_165_1642"/>
<feBlend mode="normal" in="SourceGraphic" in2="effect1_dropShadow_165_1642" result="shape"/>
</filter>
<filter id="filter1_d_165_1642" x="5.60001" y="6.59998" width="32.8" height="32.8" filterUnits="userSpaceOnUse" color-interpolation-filters="sRGB">
<feFlood flood-opacity="0" result="BackgroundImageFix"/>
<feColorMatrix in="SourceAlpha" type="matrix" values="0 0 0 0 0 0 0 0 0 0 0 0 0 0 0 0 0 0 127 0" result="hardAlpha"/>
<feOffset dy="1"/>
<feGaussianBlur stdDeviation="1"/>
<feComposite in2="hardAlpha" operator="out"/>
<feColorMatrix type="matrix" values="0 0 0 0 0 0 0 0 0 0 0 0 0 0 0 0 0 0 0.08 0"/>
<feBlend mode="normal" in2="BackgroundImageFix" result="effect1_dropShadow_165_1642"/>
<feBlend mode="normal" in="SourceGraphic" in2="effect1_dropShadow_165_1642" result="shape"/>
</filter>
</defs>
</svg>
