<svg width="15" height="14" viewBox="0 0 15 14" fill="inherit" xmlns="http://www.w3.org/2000/svg">
<path d="M14.1667 3.29631V2.74075C14.1667 1.41334 13.0867 0.333344 11.7593 0.333344H3.24078C1.91337 0.333344 0.833374 1.41334 0.833374 2.74075V3.29631H14.1667ZM0.833374 4.40742V11.2593C0.833374 12.5867 1.91337 13.6667 3.24078 13.6667H11.7593C13.0867 13.6667 14.1667 12.5867 14.1667 11.2593V4.40742H0.833374ZM4.35189 11.4445C3.84041 11.4445 3.42597 11.03 3.42597 10.5185C3.42597 10.007 3.84041 9.5926 4.35189 9.5926C4.86337 9.5926 5.27782 10.007 5.27782 10.5185C5.27782 11.03 4.86337 11.4445 4.35189 11.4445ZM4.35189 8.11112C3.84041 8.11112 3.42597 7.69668 3.42597 7.1852C3.42597 6.67371 3.84041 6.25927 4.35189 6.25927C4.86337 6.25927 5.27782 6.67371 5.27782 7.1852C5.27782 7.69668 4.86337 8.11112 4.35189 8.11112ZM7.50004 11.4445C6.98856 11.4445 6.57411 11.03 6.57411 10.5185C6.57411 10.007 6.98856 9.5926 7.50004 9.5926C8.01152 9.5926 8.42597 10.007 8.42597 10.5185C8.42597 11.03 8.01152 11.4445 7.50004 11.4445ZM7.50004 8.11112C6.98856 8.11112 6.57411 7.69668 6.57411 7.1852C6.57411 6.67371 6.98856 6.25927 7.50004 6.25927C8.01152 6.25927 8.42597 6.67371 8.42597 7.1852C8.42597 7.69668 8.01152 8.11112 7.50004 8.11112ZM10.6482 8.11112C10.1367 8.11112 9.72226 7.69668 9.72226 7.1852C9.72226 6.67371 10.1367 6.25927 10.6482 6.25927C11.1597 6.25927 11.5741 6.67371 11.5741 7.1852C11.5741 7.69668 11.1597 8.11112 10.6482 8.11112Z" fill="inherit"/>
</svg>
