<svg width="17" height="18" viewBox="0 0 17 18"  fill="inherit" xmlns="http://www.w3.org/2000/svg">
<path d="M6.80664 0.666664L6.39648 2.76953C5.71252 3.02817 5.08009 3.3895 4.52474 3.84538L2.50488 3.14876L0.561523 6.5179L2.17773 7.92252C2.12043 8.27415 2.08333 8.63218 2.08333 9C2.08333 9.36782 2.12043 9.72584 2.17773 10.0775L0.561523 11.4821L2.50488 14.8512L4.52474 14.1546C5.08009 14.6105 5.71252 14.9718 6.39648 15.2305L6.80664 17.3333H10.6934L11.1035 15.2305C11.7875 14.9718 12.4199 14.6105 12.9753 14.1546L14.9951 14.8512L16.9385 11.4821L15.3223 10.0775C15.3796 9.72584 15.4167 9.36782 15.4167 9C15.4167 8.63218 15.3796 8.27415 15.3223 7.92252L16.9385 6.5179L14.9951 3.14876L12.9753 3.84538C12.4199 3.3895 11.7875 3.02817 11.1035 2.76953L10.6934 0.666664H6.80664ZM8.75 5.66666C10.5908 5.66666 12.0833 7.15916 12.0833 9C12.0833 10.8408 10.5908 12.3333 8.75 12.3333C6.90917 12.3333 5.41667 10.8408 5.41667 9C5.41667 7.15916 6.90917 5.66666 8.75 5.66666Z"  fill="inherit"/>
</svg>
