<svg width="18" height="19" viewBox="0 0 18 19"  fill="inherit" xmlns="http://www.w3.org/2000/svg">
<path d="M4.91666 0.333334C4.82832 0.332085 4.74061 0.348405 4.65863 0.381348C4.57665 0.41429 4.50204 0.463197 4.43913 0.525227C4.37621 0.587257 4.32626 0.661172 4.29216 0.742677C4.25806 0.824181 4.2405 0.91165 4.2405 1C4.2405 1.08835 4.25806 1.17582 4.29216 1.25732C4.32626 1.33883 4.37621 1.41274 4.43913 1.47477C4.50204 1.5368 4.57665 1.58571 4.65863 1.61865C4.74061 1.6516 4.82832 1.66792 4.91666 1.66667H6.24999C6.61799 1.66667 6.91666 1.96467 6.91666 2.33333C6.91666 2.702 6.61799 3 6.24999 3H5.58333H3.58333C3.49499 2.99875 3.40728 3.01507 3.3253 3.04801C3.24332 3.08096 3.16871 3.12986 3.10579 3.19189C3.04288 3.25392 2.99292 3.32784 2.95882 3.40934C2.92473 3.49085 2.90717 3.57832 2.90717 3.66667C2.90717 3.75502 2.92473 3.84249 2.95882 3.92399C2.99292 4.0055 3.04288 4.07941 3.10579 4.14144C3.16871 4.20347 3.24332 4.25238 3.3253 4.28532C3.40728 4.31826 3.49499 4.33458 3.58333 4.33333H3.72525C3.72073 4.34218 3.71542 4.35051 3.71093 4.35938C4.0156 4.42071 4.24999 4.67667 4.24999 5C4.24999 5.36867 3.95133 5.66667 3.58333 5.66667H1.58333C1.49499 5.66542 1.40728 5.68174 1.3253 5.71468C1.24332 5.74762 1.16871 5.79653 1.10579 5.85856C1.04288 5.92059 0.992922 5.9945 0.958823 6.07601C0.924725 6.15751 0.907166 6.24498 0.907166 6.33333C0.907166 6.42168 0.924725 6.50915 0.958823 6.59066C0.992922 6.67216 1.04288 6.74608 1.10579 6.80811C1.16871 6.87014 1.24332 6.91904 1.3253 6.95199C1.40728 6.98493 1.49499 7.00125 1.58333 7H3.58333C3.95133 7 4.24999 7.298 4.24999 7.66667C4.24999 8.03533 3.95133 8.33333 3.58333 8.33333H2.91666C2.82832 8.33208 2.74061 8.34841 2.65863 8.38135C2.57665 8.41429 2.50204 8.4632 2.43913 8.52523C2.37621 8.58726 2.32626 8.66117 2.29216 8.74268C2.25806 8.82418 2.2405 8.91165 2.2405 9C2.2405 9.08835 2.25806 9.17582 2.29216 9.25733C2.32626 9.33883 2.37621 9.41274 2.43913 9.47477C2.50204 9.5368 2.57665 9.58571 2.65863 9.61865C2.74061 9.6516 2.82832 9.66792 2.91666 9.66667H4.24999C4.61799 9.66667 4.91666 9.96467 4.91666 10.3333C4.91666 10.702 4.61799 11 4.24999 11H2.91666C2.82832 10.9988 2.74061 11.0151 2.65863 11.048C2.57665 11.081 2.50204 11.1299 2.43913 11.1919C2.37621 11.2539 2.32626 11.3278 2.29216 11.4093C2.25806 11.4908 2.2405 11.5783 2.2405 11.6667C2.2405 11.755 2.25806 11.8425 2.29216 11.924C2.32626 12.0055 2.37621 12.0794 2.43913 12.1414C2.50204 12.2035 2.57665 12.2524 2.65863 12.2853C2.74061 12.3183 2.82832 12.3346 2.91666 12.3333H5.58333H6.24999C6.61799 12.3333 6.91666 12.6313 6.91666 13C6.91666 13.3687 6.61799 13.6667 6.24999 13.6667H5.98958H5.58333C5.49499 13.6654 5.40728 13.6817 5.3253 13.7147C5.24332 13.7476 5.16871 13.7965 5.10579 13.8586C5.04288 13.9206 4.99292 13.9945 4.95882 14.076C4.92473 14.1575 4.90717 14.245 4.90717 14.3333C4.90717 14.4217 4.92473 14.5092 4.95882 14.5907C4.99292 14.6722 5.04288 14.7461 5.10579 14.8081C5.16871 14.8701 5.24332 14.919 5.3253 14.952C5.40728 14.9849 5.49499 15.0013 5.58333 15H7.79427C7.97355 15.1192 8.21022 15.2709 8.28255 15.3359C8.89255 15.8846 9.39562 17.1139 9.59895 17.8112C9.69762 18.1499 9.97533 18.3208 10.25 18.3281C10.5253 18.3201 10.8024 18.1492 10.901 17.8112C11.1044 17.1139 11.6074 15.8853 12.2174 15.3359C12.8148 14.7986 17.5833 12.4893 17.5833 7.66667C17.5833 3.63997 14.3369 0.374716 10.319 0.33724C10.2961 0.334746 10.2731 0.333442 10.25 0.333334H4.91666ZM10.25 5.66667C11.3547 5.66667 12.25 6.562 12.25 7.66667C12.25 8.77133 11.3547 9.66667 10.25 9.66667C9.14533 9.66667 8.24999 8.77133 8.24999 7.66667C8.24999 6.562 9.14533 5.66667 10.25 5.66667Z" fill="inherit"/>
</svg>
