<svg width="17" height="21" viewBox="0 0 17 21" fill="inherit" xmlns="http://www.w3.org/2000/svg">
<path d="M1.85012 0.400003C0.966122 0.400003 0.250122 1.116 0.250122 2V18.8C0.250122 19.684 0.966122 20.4 1.85012 20.4H14.6501C15.5341 20.4 16.2501 19.684 16.2501 18.8V6.4C16.2501 6.188 16.1661 5.98478 16.0157 5.83438L10.8157 0.634378C10.6653 0.483978 10.4621 0.400003 10.2501 0.400003H1.85012ZM9.85012 1.92344L14.7267 6.8H10.6501C10.2085 6.8 9.85012 6.4416 9.85012 6V1.92344ZM3.90481 10.1359C4.15041 10.1359 4.39221 10.1591 4.62981 10.2047C4.86741 10.2503 5.07935 10.3383 5.26575 10.4719C5.45215 10.6055 5.6052 10.7935 5.722 11.0359C5.8388 11.2791 5.897 11.5956 5.897 11.9844C5.8978 12.3364 5.84852 12.6341 5.75012 12.8797C5.65092 13.1253 5.51961 13.3253 5.35481 13.4797C5.18921 13.6341 4.99737 13.746 4.78137 13.8156C4.56457 13.8852 4.34298 13.9203 4.11418 13.9203H4.0095C3.9607 13.9203 3.91073 13.9188 3.85793 13.9156C3.80513 13.9124 3.75208 13.9103 3.70168 13.9047C3.65128 13.8999 3.61547 13.8931 3.59387 13.8875V15.8156H2.58606V10.2719C2.77806 10.2295 2.98927 10.1959 3.21887 10.1719C3.44767 10.1479 3.67601 10.1359 3.90481 10.1359ZM7.96887 10.1359C8.41127 10.1359 8.78068 10.2046 9.07668 10.3406C9.37268 10.4766 9.61078 10.6676 9.78918 10.9156C9.96838 11.1636 10.0937 11.4614 10.1689 11.8078C10.2433 12.1542 10.2814 12.5424 10.2814 12.9688C10.2814 13.3584 10.2456 13.73 10.1736 14.0844C10.1016 14.4388 9.97547 14.7507 9.79387 15.0203C9.61147 15.2899 9.36597 15.5041 9.05637 15.6641C8.74677 15.8241 8.35878 15.9047 7.88918 15.9047C7.82038 15.9047 7.72553 15.9009 7.60793 15.8953C7.49113 15.8897 7.36875 15.8846 7.24075 15.8766C7.11275 15.8686 6.9896 15.8596 6.872 15.8516C6.7552 15.8436 6.66412 15.8346 6.60012 15.8234V10.2156C6.69612 10.1996 6.80512 10.1877 6.92512 10.1797C7.04432 10.1717 7.16671 10.1643 7.29231 10.1563C7.41711 10.1483 7.53957 10.143 7.65637 10.1406C7.77397 10.1382 7.87767 10.1359 7.96887 10.1359ZM11.0814 10.2156H13.8814V11.1438H12.0907V12.6H13.7376V13.5281H12.0907V15.8156H11.0814V10.2156ZM4.00168 11.0313C3.83688 11.0313 3.70107 11.0455 3.59387 11.0719V12.9844C3.62587 12.9956 3.68556 13.0045 3.77356 13.0125C3.86156 13.0205 3.92281 13.0234 3.95481 13.0234C4.07161 13.0234 4.18355 13.0086 4.29075 12.9766C4.39715 12.9446 4.49196 12.8901 4.57356 12.8125C4.65676 12.7349 4.72323 12.6282 4.77043 12.4922C4.81923 12.3562 4.84231 12.1846 4.84231 11.9766C4.84231 11.8006 4.81916 11.6505 4.77356 11.5281C4.72796 11.4057 4.66755 11.3079 4.59075 11.2359C4.51315 11.1639 4.4228 11.1117 4.322 11.0797C4.2204 11.0477 4.11368 11.0313 4.00168 11.0313ZM8.07356 11.0641C7.98876 11.0641 7.90218 11.0656 7.81418 11.0688C7.72698 11.0712 7.6575 11.0771 7.6095 11.0875V14.9438C7.6263 14.9486 7.65387 14.9539 7.69387 14.9563C7.73387 14.9587 7.7772 14.9617 7.822 14.9641C7.8668 14.9665 7.90856 14.9695 7.94856 14.9719C7.98856 14.9743 8.01693 14.9766 8.03293 14.9766C8.27293 14.9766 8.46992 14.9198 8.62512 14.8078C8.77872 14.6958 8.90199 14.5458 8.98918 14.3594C9.07718 14.173 9.1376 13.958 9.172 13.7156C9.2064 13.4732 9.22512 13.218 9.22512 12.9516C9.22512 12.706 9.20941 12.4702 9.17981 12.2406C9.15261 12.0118 9.09582 11.8095 9.01262 11.6359C8.92942 11.4631 8.81382 11.3243 8.66262 11.2203C8.51062 11.1163 8.31276 11.0641 8.07356 11.0641Z"  fill="inherit"/>
</svg>
