<svg width="18" height="14" viewBox="0 0 18 14"  fill="inherit" xmlns="http://www.w3.org/2000/svg">
<path d="M16.5834 0.333336H1.91671C1.18004 0.333336 0.583374 0.930003 0.583374 1.66667V12.3333C0.583374 13.07 1.18004 13.6667 1.91671 13.6667H16.5834C17.32 13.6667 17.9167 13.07 17.9167 12.3333V1.66667C17.9167 0.930003 17.32 0.333336 16.5834 0.333336ZM10.5834 11H3.25004C2.88137 11 2.58337 10.702 2.58337 10.3333C2.58337 9.96467 2.88137 9.66667 3.25004 9.66667H10.5834C10.952 9.66667 11.25 9.96467 11.25 10.3333C11.25 10.702 10.952 11 10.5834 11ZM8.58337 7.66667H3.25004C2.88137 7.66667 2.58337 7.36867 2.58337 7C2.58337 6.63134 2.88137 6.33334 3.25004 6.33334H8.58337C8.95204 6.33334 9.25004 6.63134 9.25004 7C9.25004 7.36867 8.95204 7.66667 8.58337 7.66667ZM10.5834 4.33334H3.25004C2.88137 4.33334 2.58337 4.03534 2.58337 3.66667C2.58337 3.298 2.88137 3 3.25004 3H10.5834C10.952 3 11.25 3.298 11.25 3.66667C11.25 4.03534 10.952 4.33334 10.5834 4.33334ZM14.5834 5L13.25 3.66667L14.5834 2.33334L15.9167 3.66667L14.5834 5ZM14.5834 8.33334L13.25 7L14.5834 5.66667L15.9167 7L14.5834 8.33334ZM14.5834 11.6667L13.25 10.3333L14.5834 9L15.9167 10.3333L14.5834 11.6667Z"  fill="inherit" />
</svg>
