<svg width="14" height="14" viewBox="0 0 14 14"  fill="inherit" xmlns="http://www.w3.org/2000/svg">
<path d="M7.00001 0.600006C3.46561 0.600006 0.600006 3.46561 0.600006 7.00001C0.600006 10.5344 3.46561 13.4 7.00001 13.4C10.5344 13.4 13.4 10.5344 13.4 7.00001C13.4 3.46561 10.5344 0.600006 7.00001 0.600006ZM6.46667 2.7698V4.94271C5.9384 5.07955 5.49021 5.4081 5.20417 5.85626L3.14271 5.18646C3.75269 3.89204 4.99094 2.95423 6.46667 2.7698ZM7.53334 2.7698C9.00907 2.95423 10.2473 3.89204 10.8573 5.18646L8.79584 5.85626C8.5098 5.4081 8.06162 5.07955 7.53334 4.94271V2.7698ZM2.81042 6.20001L4.87917 6.87188C4.87656 6.91507 4.86667 6.95616 4.86667 7.00001C4.86667 7.51477 5.05679 7.9804 5.36042 8.34896L4.08334 10.1073C3.25452 9.32895 2.73334 8.22662 2.73334 7.00001C2.73334 6.72616 2.76112 6.4595 2.81042 6.20001ZM11.1896 6.20001C11.2389 6.4595 11.2667 6.72616 11.2667 7.00001C11.2667 8.22662 10.7455 9.32895 9.91667 10.1073L8.63959 8.34896C8.94322 7.9804 9.13334 7.51477 9.13334 7.00001C9.13334 6.95616 9.12345 6.91507 9.12084 6.87188L11.1896 6.20001ZM6.97084 6.47292C6.99061 6.47402 7.01044 6.47402 7.03021 6.47292C7.23353 6.48497 7.40632 6.60735 7.48542 6.78438C7.48979 6.80483 7.49535 6.825 7.50209 6.8448C7.51763 6.89482 7.53334 6.94489 7.53334 7.00001C7.53334 7.29441 7.29441 7.53334 7.00001 7.53334C6.70561 7.53334 6.46667 7.29441 6.46667 7.00001C6.46667 6.94525 6.48257 6.89558 6.49792 6.84584C6.50474 6.82536 6.5103 6.80449 6.51459 6.78334C6.59399 6.60643 6.76737 6.48458 6.97084 6.47292ZM6.2198 8.98126C6.46199 9.07676 6.72389 9.13334 7.00001 9.13334C7.27612 9.13334 7.53802 9.07676 7.78021 8.98126L9.05626 10.7385C8.44621 11.0749 7.74585 11.2667 7.00001 11.2667C6.25417 11.2667 5.5538 11.0749 4.94376 10.7385L6.2198 8.98126Z" fill="inherit"/>
</svg>
